PathFileType	3	(X/Y/Z)	D:\minhoCalibration\240510\subject2_KPNP\preferred\preferred08.trc
DataRate	CameraRate	NumFrames	NumMarkers	Units	OrigDataRate	OrigDataStartFrame	OrigNumFrames
200.0	200.0	18	10	mm	200.0	412	229	
Frame#	Time	Left_Ankle_Outer1			Left_Ankle_Inner1			Left_Knee_Outer1			Left_Knee_Inner1			Left_Wrist1			Right_Wrist1			Right_Knee_Inner1			Right_Knee_Outer1			Right_Ankle_Inner1			Right_Ankle_Outer1			
		X1	Y1	Z1	X2	Y2	Z2	X3	Y3	Z3	X4	Y4	Z4	X5	Y5	Z5	X6	Y6	Z6	X7	Y7	Z7	X8	Y8	Z8	X9	Y9	Z9	X10	Y10	Z10	
412	2.05	-528.18793	84.82029	-770.99756	-555.29364	87.094635	-723.28174	-362.99655	508.91452	-704.89734	-451.51456	490.01773	-648.25122	-469.3024	925.22296	-839.06641	-780.11987	958.25183	-972.33826	-808.85675	458.0415	-983.19562	-860.99335	496.57248	-1071.136	-756.56354	107.8244	-1216.2433	-829.10406	134.2545	-1278.7878
413	2.055	-526.95135	85.462067	-770.66589	-554.44952	87.406868	-723.43591	-360.5571	508.72308	-699.89349	-449.80112	488.39923	-648.35828	-465.54721	924.60468	-837.33575	-778.94672	958.39545	-963.05597	-810.94067	456.21014	-979.29614	-863.52283	497.53717	-1064.5808	-756.56525	110.80463	-1213.5546	-828.48291	138.86745	-1276.7413
414	2.06	-525.05548	86.02623	-770.4491	-553.16998	87.766052	-723.48474	-358.2099	509.12512	-694.98236	-448.19623	488.54935	-645.87231	-462.10382	924.45129	-834.71021	-776.98651	959.05286	-958.41248	-811.24463	450.58862	-992.80243	-866.87292	498.25168	-1055.2615	-756.64136	114.29456	-1210.418	-828.28394	142.73492	-1273.6697
415	2.065	-523.12469	86.475266	-770.32941	-551.95801	87.373047	-724.73932	-356.151	509.80176	-690.64679	-446.27121	488.97128	-643.40845	-458.11685	924.76947	-832.79486	-775.63593	959.54071	-948.04126	-815.10864	451.10941	-984.0979	-870.73138	499.05951	-1045.9409	-756.90485	118.28449	-1206.8569	-828.19733	147.36148	-1270.1193
416	2.07	-521.11011	86.87851	-770.46539	-550.29431	88.508263	-724.35254	-353.76178	510.68365	-686.70276	-444.13815	489.4903	-641.56677	-454.15875	925.09186	-830.55554	-772.99023	960.52478	-942.7608	-820.74707	453.71674	-963.66455	-874.33191	502.64676	-1037.5038	-757.29187	123.07835	-1202.6533	-828.08197	152.77437	-1266.0109
417	2.075	-519.48718	86.997131	-770.76855	-549.0376	88.821312	-724.99243	-351.54242	511.42853	-683.66016	-441.84949	489.93631	-639.72797	-449.48715	926.18433	-828.30432	-770.77844	960.95685	-934.80499	-825.51636	455.5462	-952.70142	-879.4577	504.66299	-1026.1733	-757.85101	128.3943	-1197.7988	-828.51477	158.95204	-1261.1707
418	2.08	-518.14771	87.081253	-771.27484	-548.07935	88.864845	-725.97296	-349.22894	511.71075	-681.25751	-439.30569	490.61264	-637.94641	-444.63327	927.5885	-826.00104	-767.66992	962.02325	-926.71777	-830.82538	456.5864	-943.40759	-885.54858	507.30289	-1013.8614	-758.86194	134.54384	-1192.0548	-829.03418	165.60541	-1255.5692
419	2.085	-516.87842	86.875679	-772.04242	-547.27325	88.869461	-726.92047	-346.8559	511.61975	-679.69379	-436.46039	490.69156	-636.77765	-439.49539	929.39417	-823.69952	-764.58826	963.01752	-917.08002	-837.05908	459.63785	-928.1767	-891.30701	509.92773	-1000.0121	-760.66998	141.53624	-1185.0535	-830.12585	172.964	-1249.0994
420	2.09	-515.92108	86.513123	-772.76312	-546.64313	88.700127	-728.04987	-344.33072	510.92059	-678.789	-433.38181	490.64505	-635.67737	-434.04395	931.44391	-821.41315	-761.08917	964.27802	-908.84039	-841.93146	458.54053	-927.36322	-897.08856	513.70605	-987.11841	-762.87445	148.7421	-1177.4935	-831.68219	181.07161	-1241.6466
421	2.095	-515.20605	86.13382	-773.26575	-546.02106	88.659531	-728.55914	-341.74948	509.79013	-678.56647	-429.99133	489.87207	-635.45917	-428.4426	933.46167	-819.33514	-757.12299	965.68512	-901.80975	-847.98962	461.29861	-913.63153	-901.33759	519.75543	-965.95563	-765.72217	155.97939	-1169.2936	-833.93414	189.65198	-1233.1891
422	2.1	-514.75592	85.888962	-773.5899	-545.59399	88.659256	-728.82526	-338.58768	508.38757	-679.16376	-426.86786	488.87564	-634.84088	-422.64682	936.01044	-816.75342	-752.83405	967.27356	-894.03345	-853.82208	464.60895	-898.58691	-908.59033	520.52448	-955.81824	-768.89001	163.65334	-1160.2018	-836.5423	199.04474	-1223.8545
423	2.105	-514.47217	85.718002	-773.73193	-545.27466	88.580666	-729.07642	-335.81192	506.61993	-680.01794	-423.50504	487.81723	-634.75836	-417.2785	938.25732	-814.52118	-748.9953	968.9668	-884.77106	-860.22559	473.69308	-867.93115	-914.61298	526.15808	-943.24426	-771.78772	171.78494	-1150.5446	-839.2569	208.78421	-1213.764
424	2.11	-514.12305	85.57299	-773.87109	-544.94574	88.580978	-729.27014	-332.93246	504.85062	-681.25543	-420.32739	486.98514	-634.32788	-412.63788	940.55255	-812.68689	-744.49335	970.86255	-877.74268	-864.3725	473.01517	-866.23505	-917.61139	532.1712	-928.46173	-775.27765	180.44089	-1140.1918	-842.09418	219.47481	-1203.0374
425	2.115	-512.88055	86.091461	-774.83459	-544.50208	88.753601	-729.3905	-330.27341	503.12967	-682.71729	-417.28485	486.13165	-633.80438	-406.9079	943.32593	-810.01904	-740.20642	972.80249	-869.87518	-864.1626	473.73135	-857.58813	-921.00409	537.91431	-912.13373	-779.6084	189.60406	-1129.3973	-844.78204	230.86749	-1191.7559
426	2.12	-512.96368	85.83313	-774.61432	-544.08893	88.922371	-729.59949	-327.19611	501.78589	-684.5791	-413.87073	484.8053	-635.89709	-401.10599	945.70966	-808.92102	-735.89087	974.87646	-862.26489	-872.7569	483.55859	-830.60742	-924.53009	542.65033	-893.06189	-781.86407	199.71153	-1118.0312	-847.38239	242.81152	-1179.8646
427	2.125	-512.66412	85.751488	-774.94635	-543.59955	89.212601	-729.68182	-324.67416	500.31912	-686.5368	-410.72507	484.09241	-637.03925	-396.01254	948.17297	-807.36475	-731.66101	977.63641	-854.48523	-875.38971	489.31918	-812.53326	-927.07184	548.86823	-874.54736	-784.64355	210.27834	-1106.1992	-849.84363	254.93466	-1167.224
428	2.13	-512.35028	85.725311	-775.3504	-543.11584	89.488457	-729.98853	-322.1532	499.32971	-688.58801	-407.61716	483.62576	-638.59949	-390.93646	950.60748	-806.51495	-727.37317	980.39832	-846.84979	-877.20245	495.69727	-793.2038	-927.42029	557.04102	-857.21143	-787.71521	221.23004	-1093.8268	-852.03265	267.63715	-1154.1842
429	2.135	-512.02582	85.674416	-775.78369	-542.72864	89.771751	-730.42609	-319.70099	498.51843	-691.17401	-404.43881	483.29407	-640.44928	-385.71143	953.08264	-805.64276	-723.07654	983.51038	-838.6568	-878.18555	502.56979	-773.737	-927.90863	563.02039	-835.23645	-789.55963	233.16304	-1081.4418	-854.18726	281.0386	-1140.8331
